<?xml version="1.0" encoding="utf-8"?>
<!-- Generator: Adobe Illustrator 18.1.1, SVG Export Plug-In . SVG Version: 6.00 Build 0)  -->
<svg version="1.1" id="Layer_1" xmlns="http://www.w3.org/2000/svg" xmlns:xlink="http://www.w3.org/1999/xlink" x="0px" y="0px"
	 viewBox="-429 231 100 100" enable-background="new -429 231 100 100" xml:space="preserve">
<path d="M-364.8,239.8c0.6-1.3,1.9-2.2,3.4-2.2c2.1,0,3.8,1.7,3.8,3.8c0,2.1-1.7,3.8-3.8,3.8v-0.5l0,0v0.5c-0.2,0-0.3,0-0.4,0
	c-2.8,3.2-7.1,11.8-7.1,34h-3.8c0-20.8,3.7-30.7,7.1-35.4c-17,2.8-30,17.6-30,35.4h-3.8C-399.4,258.9-384.3,242.3-364.8,239.8z"/>
<path fill="#F62900" d="M-355.7,288.9c-3.9-3.9-9.1-6.1-14.7-6.1c-4.9,0-9.6,1.7-13.3,4.9c-3.7-3.1-8.4-4.9-13.3-4.9
	c-11.4,0-20.7,9.3-20.7,20.7c0,11.4,9.3,20.7,20.7,20.7c4.9,0,9.6-1.7,13.3-4.9c3.7,3.1,8.4,4.9,13.3,4.9c0,0,0,0,0,0
	c5.5,0,10.7-2.2,14.7-6.1c3.9-3.9,6.1-9.1,6.1-14.7C-349.6,298-351.8,292.8-355.7,288.9z M-406.4,312.9c0.7,0.7,0.7,1.9,0,2.7
	c-0.4,0.4-0.9,0.6-1.3,0.6c-0.5,0-1-0.2-1.3-0.6c-3.2-3.2-5-7.5-5-12c0-4.5,1.8-8.8,5-12c0.7-0.7,1.9-0.7,2.7,0
	c0.7,0.7,0.7,1.9,0,2.7c-2.5,2.5-3.9,5.8-3.9,9.3C-410.3,307.1-408.9,310.4-406.4,312.9z M-370.4,290.4c-7.3,0-13.2,5.9-13.2,13.2
	c0,1-0.8,1.9-1.9,1.9c-1,0-1.9-0.8-1.9-1.9c0-9.4,7.6-17,17-17c1,0,1.9,0.8,1.9,1.9C-368.5,289.5-369.3,290.4-370.4,290.4z"/>
</svg>
