<?xml version="1.0" encoding="utf-8"?>
<!-- Generator: Adobe Illustrator 18.1.1, SVG Export Plug-In . SVG Version: 6.00 Build 0)  -->
<svg version="1.1" id="Layer_1" xmlns="http://www.w3.org/2000/svg" xmlns:xlink="http://www.w3.org/1999/xlink" x="0px" y="0px"
	 viewBox="-429 231 100 100" enable-background="new -429 231 100 100" xml:space="preserve">
<path fill="#FF023B" d="M-354.2,237.6c-8.9,0-16.5,7.3-16.5,16.2v18.5c1.8-1.9,3.4-3.2,5.8-3.2c2.2,0,4.3,1.1,5.5,2.9
	c1.2-1.7,3.2-2.9,5.4-2.9c2.2,0,4.3,1.1,5.4,2.9c1.2-1.7,3.3-2.9,5.5-2.9c2.2,0,3.6,1.1,5.4,2.7v-18
	C-337.7,244.8-345.3,237.6-354.2,237.6z M-361.9,253.7c-2,0-3.6-1.6-3.6-3.6c0-2,1.6-3.6,3.6-3.6c2,0,3.6,1.6,3.6,3.6
	C-358.3,252-359.9,253.7-361.9,253.7z M-348.7,253.7c-2,0-3.6-1.6-3.6-3.6c0-2,1.6-3.6,3.6-3.6c2,0,3.6,1.6,3.6,3.6
	C-345,252-346.7,253.7-348.7,253.7z"/>
<path fill="#FFA2DD" d="M-407.7,263.7c-8.9,0-16.5,7.3-16.5,16.2v18.5c1.8-1.9,3.4-3.2,5.8-3.2c2.2,0,4.3,1.1,5.5,2.9
	c1.2-1.7,3.2-2.9,5.4-2.9c2.2,0,4.3,1.1,5.4,2.9c1.2-1.7,3.3-2.9,5.5-2.9c2.2,0,3.6,1.1,5.4,2.7v-18
	C-391.2,270.9-398.8,263.7-407.7,263.7z M-415.3,279.7c-2,0-3.6-1.6-3.6-3.6s1.6-3.6,3.6-3.6c2,0,3.6,1.6,3.6,3.6
	S-413.3,279.7-415.3,279.7z M-402.1,279.7c-2,0-3.6-1.6-3.6-3.6s1.6-3.6,3.6-3.6c2,0,3.6,1.6,3.6,3.6S-400.1,279.7-402.1,279.7z"/>
<circle cx="-362.5" cy="251.5" r="1.8"/>
<circle cx="-349.2" cy="251.5" r="1.8"/>
<circle cx="-402" cy="276.2" r="1.8"/>
<circle cx="-415.5" cy="276.2" r="1.8"/>
<circle cx="-347.4" cy="299.1" r="1.8"/>
<circle cx="-363.2" cy="300.9" r="1.8"/>
<path fill="#FFAD38" d="M-354.2,287.6c-8.9,0-16.5,7.3-16.5,16.2v18.5c1.8-1.9,3.4-3.2,5.8-3.2c2.2,0,4.3,1.1,5.5,2.9
	c1.2-1.7,3.2-2.9,5.4-2.9c2.2,0,4.3,1.1,5.4,2.9c1.2-1.7,3.3-2.9,5.5-2.9c2.2,0,3.6,1.1,5.4,2.7v-18
	C-337.7,294.8-345.3,287.6-354.2,287.6z M-361.9,303.7c-2,0-3.6-1.6-3.6-3.6s1.6-3.6,3.6-3.6c2,0,3.6,1.6,3.6,3.6
	S-359.9,303.7-361.9,303.7z M-348.7,303.7c-2,0-3.6-1.6-3.6-3.6s1.6-3.6,3.6-3.6c2,0,3.6,1.6,3.6,3.6S-346.7,303.7-348.7,303.7z"/>
<path d="M-372.5,287.8c-1.2-0.8-2.6-0.8-3.7-0.2l-6.7-4.7l6.4-4.2c1.1,0.7,2.5,0.8,3.7,0c1.7-1.2,2.3-3.7,1.3-5.6
	c-1-1.9-3.3-2.6-5.1-1.4c-1.2,0.8-1.8,2.2-1.8,3.6l-6.2,4c0,0-0.1-0.1-0.1-0.1c-1.7-1.2-4-0.7-5.1,1.2c-1.1,1.9-0.6,4.4,1.1,5.6
	c1.2,0.8,2.6,0.8,3.7,0.2l6.7,4.8c-0.1,1.4,0.5,2.8,1.7,3.7c1.7,1.2,4,0.7,5.1-1.2C-370.3,291.5-370.8,289-372.5,287.8z M-375.2,274
	c0.6-0.4,1.3-0.2,1.7,0.5c0.3,0.6,0.2,1.5-0.4,1.8c-0.6,0.4-1.3,0.2-1.7-0.5C-376,275.2-375.8,274.4-375.2,274z M-385.5,283.4
	c-0.4,0.6-1.1,0.8-1.7,0.4c-0.6-0.4-0.7-1.2-0.4-1.9c0.4-0.6,1.1-0.8,1.7-0.4C-385.3,281.9-385.1,282.7-385.5,283.4z M-373.4,291.9
	c-0.4,0.6-1.1,0.8-1.7,0.4c-0.6-0.4-0.7-1.2-0.4-1.9c0.4-0.6,1.1-0.8,1.7-0.4C-373.2,290.5-373.1,291.3-373.4,291.9z"/>
</svg>
