<?xml version="1.0" encoding="utf-8"?>
<!-- Generator: Adobe Illustrator 18.1.1, SVG Export Plug-In . SVG Version: 6.00 Build 0)  -->
<svg version="1.1" id="Layer_1" xmlns="http://www.w3.org/2000/svg" xmlns:xlink="http://www.w3.org/1999/xlink" x="0px" y="0px"
	 viewBox="-429 231 100 100" enable-background="new -429 231 100 100" xml:space="preserve">
<path d="M-361,281.5c5-0.1,9.6,1.9,13.4,4.7l-13,18.1l21.7,6.8c-2.9,9.1-11.3,15.8-21.3,15.9c-12.6,0.2-22.9-9.8-23.2-22.4
	C-383.5,292.1-373.5,281.8-361,281.5z"/>
<rect x="-406.5" y="301.4" width="16.3" height="6.5"/>
<rect x="-406.5" y="291.6" width="19.5" height="6.5"/>
<path d="M-406.5,288.4v-6.5h22.8v6.5H-406.5z"/>
<path d="M-419.5,236.4h47.1l24.4,24.4l0,20.2l-6.5-3.4l0-8.7h-26v-26l-32.5,0v71.5h24.9c0.7,2.3,1.8,4.5,3.1,6.5h-34.5V236.4z
	 M-374,244.5v17.9h17.9L-374,244.5z"/>
</svg>
